HIERARCHY
ROOT Hips
{
	OFFSET 0.000000 0.000000 0.000000
	CHANNELS 6 Xposition Yposition Zposition Xrotation Yrotation Zrotation
	JOINT Chest
	{
		OFFSET 0.000000 1.136021 10.224184
		CHANNELS 3 Xrotation Yrotation Zrotation
		JOINT Chest2
		{
			OFFSET 0.000000 -0.000000 11.333265
			CHANNELS 3 Xrotation Yrotation Zrotation
			JOINT Chest3
			{
				OFFSET 0.000000 0.005192 10.347984
				CHANNELS 3 Xrotation Yrotation Zrotation
				JOINT Chest4
				{
					OFFSET 0.000000 0.005197 10.336430
					CHANNELS 3 Xrotation Yrotation Zrotation
					JOINT Neck
					{
						OFFSET 0.000000 -0.000001 14.463490
						CHANNELS 3 Xrotation Yrotation Zrotation
						JOINT Head
						{
							OFFSET 0.000000 -0.011165 9.624710
							CHANNELS 3 Xrotation Yrotation Zrotation
							End Site
							{
								OFFSET 0.000000 -0.001503 17.845871
							}
						}
					}
					JOINT RightCollar
					{
						OFFSET -3.157643 -0.000000 8.110622
						CHANNELS 3 Xrotation Yrotation Zrotation
						JOINT RightShoulder
						{
							OFFSET -14.841243 0.000000 0.000000
							CHANNELS 3 Xrotation Yrotation Zrotation
							JOINT RightElbow
							{
								OFFSET -31.724693 0.000000 0.000000
								CHANNELS 3 Xrotation Yrotation Zrotation
								JOINT RightWrist
								{
									OFFSET -25.942017 0.000000 0.000000
									CHANNELS 3 Xrotation Yrotation Zrotation
									End Site
									{
										OFFSET -19.392693 0.000000 0.000000
									}
								}
							}
						}
					}
					JOINT LeftCollar
					{
						OFFSET 3.157643 -0.000000 8.110622
						CHANNELS 3 Xrotation Yrotation Zrotation
						JOINT LeftShoulder
						{
							OFFSET 14.841243 0.000000 0.000000
							CHANNELS 3 Xrotation Yrotation Zrotation
							JOINT LeftElbow
							{
								OFFSET 31.724693 0.000000 0.000000
								CHANNELS 3 Xrotation Yrotation Zrotation
								JOINT LeftWrist
								{
									OFFSET 25.942017 0.000000 0.000000
									CHANNELS 3 Xrotation Yrotation Zrotation
									End Site
									{
										OFFSET 19.392693 0.000000 0.000000
									}
								}
							}
						}
					}
				}
			}
		}
	}
	JOINT RightHip
	{
		OFFSET -8.427108 0.001539 0.013854
		CHANNELS 3 Xrotation Yrotation Zrotation
		JOINT RightKnee
		{
			OFFSET 0.000000 0.001229 -43.437389
			CHANNELS 3 Xrotation Yrotation Zrotation
			JOINT RightAnkle
			{
				OFFSET 0.000000 0.002070 -42.439701
				CHANNELS 3 Xrotation Yrotation Zrotation
				JOINT RightToe
				{
					OFFSET 0.000000 -19.371378 -8.481461
					CHANNELS 3 Xrotation Yrotation Zrotation
					End Site
					{
						OFFSET 0.000000 -7.762478 -1.743713
					}
				}
			}
		}
	}
	JOINT LeftHip
	{
		OFFSET 8.427108 0.001285 0.011561
		CHANNELS 3 Xrotation Yrotation Zrotation
		JOINT LeftKnee
		{
			OFFSET 0.000000 0.001229 -43.437389
			CHANNELS 3 Xrotation Yrotation Zrotation
			JOINT LeftAnkle
			{
				OFFSET 0.000000 0.002070 -42.439705
				CHANNELS 3 Xrotation Yrotation Zrotation
				JOINT LeftToe
				{
					OFFSET 0.000000 -19.371378 -8.481461
					CHANNELS 3 Xrotation Yrotation Zrotation
					End Site
					{
						OFFSET 0.000000 -7.762478 -1.743713
					}
				}
			}
		}
	}
}
MOTION
Frames: 15
Frame Time: 0.004184
255.420624 472.272583 92.554695 -4.701895 -3.030476 -165.031058 -0.324914 -0.452906 0.401830 -5.971152 -0.218131 0.157578 -0.150719 -0.218148 0.157556 5.723598 -0.150715 0.134232 9.490289 -0.817423 1.415945 -18.383963 -2.106280 2.186225 2.195996 -5.855197 2.492117 -32.199458 -59.640058 -30.760611 37.490908 -11.188152 84.937377 -3.539699 9.144186 18.409189 1.478639 7.861574 -2.861666 -36.096081 54.916080 55.427012 40.520316 30.809706 -82.703632 -6.009699 -0.878976 -23.186119 -12.717871 6.468715 -10.789437 83.898936 3.087489 -5.765766 -7.934538 -3.491256 -3.877547 -0.000000 0.000000 -0.000000 -29.130443 -0.463638 5.943008 31.650431 -0.806133 2.064464 -17.754064 1.493360 -5.190692 0.000000 -0.000001 0.000004 
255.280258 473.043243 92.183640 -4.618490 -2.938172 -164.949670 -0.206391 -0.411882 0.327486 -5.918375 -0.196761 0.126413 -0.097942 -0.196774 0.126390 5.763198 -0.137162 0.109332 9.375788 -0.844108 1.410641 -18.596768 -2.153797 2.162897 2.016589 -5.893738 2.433869 -32.271599 -59.527038 -31.387718 37.531268 -11.264805 84.521289 -3.651362 9.124497 18.401868 1.496837 7.938749 -2.951268 -35.848118 55.351652 54.371250 39.954373 30.720531 -82.490435 -6.112637 -1.045654 -23.316652 -13.362230 6.715697 -11.094019 85.570761 3.502443 -5.731213 -8.349963 -3.122972 -4.186462 0.000001 -0.000001 0.000003 -29.469507 -0.271214 5.900258 33.280209 -1.024689 1.245211 -18.119956 0.971978 -4.372194 -0.000002 -0.000000 0.000002 
255.144333 473.804321 91.802361 -4.531250 -2.840570 -164.864197 -0.079163 -0.367834 0.254862 -5.861741 -0.174097 0.096158 -0.041309 -0.174107 0.096138 5.805685 -0.122571 0.085011 9.252979 -0.873681 1.400182 -18.825142 -2.204275 2.128731 1.820703 -5.937188 2.369358 -32.374212 -59.404860 -32.062479 37.576402 -11.343135 84.063967 -3.772056 9.103547 18.391881 1.517602 8.021551 -3.044570 -35.527639 55.817330 53.199227 39.337371 30.619653 -82.247437 -6.228042 -1.232223 -23.461118 -14.025559 6.966645 -11.411610 87.231665 3.931145 -5.706340 -8.756742 -2.735433 -4.487852 -0.000002 -0.000000 0.000002 -29.867222 -0.067016 5.861678 35.064122 -1.285932 0.276094 -18.608743 0.415753 -3.406419 -0.000000 -0.000001 0.000001 
255.011856 474.559113 91.417152 -4.442047 -2.739525 -164.776989 0.053886 -0.322094 0.183568 -5.802534 -0.150711 0.066596 0.017898 -0.150718 0.066579 5.850101 -0.107384 0.061159 9.124469 -0.904389 1.386060 -19.064231 -2.255162 2.087261 1.615889 -5.984034 2.300891 -32.493764 -59.276473 -32.767897 37.621372 -11.419642 83.572952 -3.899628 9.081367 18.380374 1.540121 8.108889 -3.139807 -35.147713 56.298439 51.935293 38.689699 30.509642 -81.982201 -6.351312 -1.432345 -23.614351 -14.704209 7.220629 -11.735589 88.867106 4.367259 -5.689741 -9.155314 -2.336619 -4.778714 0.000000 0.000000 -0.000001 -30.297602 0.142799 5.831128 36.946266 -1.587583 -0.792306 -19.192152 -0.159386 -2.340047 -0.000003 0.000000 0.000001 
254.881851 475.310852 91.034180 -4.352742 -2.636907 -164.690409 0.189862 -0.275975 0.113239 -5.742039 -0.127164 0.037496 0.078392 -0.127169 0.037487 5.895478 -0.092035 0.037644 8.992839 -0.934473 1.369789 -19.309189 -2.303913 2.042036 1.409698 -6.032770 2.230809 -32.617114 -59.145026 -33.487335 37.661369 -11.491035 83.055934 -4.031944 9.058050 18.368563 1.563560 8.199700 -3.235186 -34.724084 56.780889 50.606193 38.031641 30.393512 -81.702696 -6.477900 -1.639559 -23.771288 -15.394568 7.476446 -12.059464 90.462447 4.804579 -5.679251 -9.546280 -1.934395 -5.055771 -0.000003 -0.000000 0.000000 -30.734673 0.351912 5.812042 38.870849 -1.924939 -1.910279 -19.844331 -0.737679 -1.220014 0.000001 -0.000001 0.000002 
254.753326 476.062775 90.659706 -4.265180 -2.534591 -164.606794 0.325865 -0.230773 0.043524 -5.681546 -0.104012 0.008668 0.138885 -0.104014 0.008654 5.940850 -0.076952 0.014359 8.860689 -0.962179 1.352881 -19.555154 -2.348013 1.996624 1.209694 -6.081898 2.161483 -32.731571 -59.013920 -34.204600 37.691771 -11.554248 82.520727 -4.166916 9.033782 18.357715 1.587057 8.292942 -3.328888 -34.275573 57.251414 49.241463 37.383388 30.274779 -81.417194 -6.603279 -1.847271 -23.926940 -16.093058 7.732582 -12.376875 92.002976 5.237089 -5.671570 -9.930424 -1.536538 -5.315488 -0.000002 -0.000000 0.000001 -31.152496 0.553868 5.807412 40.782383 -2.290596 -3.029245 -20.542030 -1.302888 -0.093418 -0.000003 0.000000 -0.000001 
254.625290 476.818146 90.299965 -4.181195 -2.434468 -164.528534 0.458985 -0.187758 -0.025914 -5.622347 -0.081802 -0.020113 0.198083 -0.081802 -0.020122 5.985252 -0.062564 -0.008807 8.730603 -0.985757 1.336854 -19.797255 -2.384967 1.954627 1.023435 -6.129933 2.095296 -32.824912 -58.886763 -34.903920 37.708115 -11.606466 81.975309 -4.302483 9.008814 18.349139 1.609726 8.387607 -3.419083 -33.824422 57.697736 47.873817 36.764934 30.157464 -81.134369 -6.723002 -2.048740 -24.076374 -16.796115 7.987222 -12.681627 93.473837 5.658968 -5.662576 -10.308647 -1.150752 -5.554120 0.000000 0.000001 -0.000002 -31.525151 0.742118 5.819775 42.625749 -2.674335 -4.101866 -21.264500 -1.837903 0.992640 -0.000001 -0.000001 -0.000001 
254.496765 477.580231 89.961182 -4.102604 -2.338445 -164.457882 0.586308 -0.148184 -0.095396 -5.565735 -0.061076 -0.049043 0.254696 -0.061072 -0.049052 6.027712 -0.049288 -0.031969 8.605168 -1.003452 1.323235 -20.030646 -2.412299 1.919662 0.858492 -6.175387 2.034649 -32.885319 -58.767364 -35.569924 37.706121 -11.645113 81.427767 -4.436647 8.983493 18.344220 1.630657 8.482719 -3.503903 -33.396323 58.108586 46.539116 36.196116 30.046129 -80.863149 -6.832655 -2.237100 -24.214749 -17.500227 8.238280 -12.967693 94.860065 6.064672 -5.647522 -10.682050 -0.784710 -5.767715 -0.000003 0.000001 -0.000002 -31.826721 0.910088 5.851279 44.346444 -3.063222 -5.082113 -21.993231 -2.324487 1.991079 -0.000002 -0.000000 0.000000 
254.366776 478.352295 89.649590 -4.031213 -2.248428 -164.397203 0.704915 -0.113291 -0.165237 -5.513006 -0.042369 -0.078316 0.307425 -0.042362 -0.078322 6.067256 -0.037540 -0.055236 8.486969 -1.013512 1.313548 -20.250471 -2.427552 1.895367 0.722436 -6.216769 1.981967 -32.901352 -58.659700 -36.187592 37.681696 -11.667899 80.886351 -4.567438 8.958233 18.344382 1.648910 8.577323 -3.581464 -33.020215 58.473789 45.276258 35.696539 29.945752 -80.612789 -6.927922 -2.405344 -24.337296 -18.201904 8.483382 -13.229188 96.146531 6.448840 -5.621218 -11.051847 -0.446088 -5.952218 0.000001 0.000000 -0.000002 -32.031268 1.051250 5.903796 45.890514 -3.441818 -5.925256 -22.711545 -2.743179 2.854963 0.000002 0.000000 -0.000001 
254.234314 479.137573 89.371429 -3.968822 -2.166338 -164.348790 0.811883 -0.084302 -0.235715 -5.465453 -0.026214 -0.108129 0.354976 -0.026203 -0.108132 6.102916 -0.027730 -0.078705 8.378583 -1.014181 1.309322 -20.451898 -2.428277 1.885388 0.622840 -6.252558 1.939678 -32.861806 -58.567827 -36.742104 37.630934 -11.672769 80.359402 -4.692950 8.933572 18.351123 1.663527 8.670481 -3.649846 -32.727705 58.784044 44.126611 35.285563 29.861802 -80.392727 -7.004564 -2.546353 -24.439305 -18.897651 8.719909 -13.460416 97.317983 6.806330 -5.577976 -11.419357 -0.142624 -6.103511 -0.000002 -0.000001 0.000002 -32.112821 1.159212 5.979055 47.204612 -3.792530 -6.587747 -23.403906 -3.073255 3.537574 -0.000002 -0.000000 -0.000002 
254.098404 479.939392 89.132935 -3.917222 -2.094098 -164.314913 0.904285 -0.062433 -0.307125 -5.424380 -0.013140 -0.138675 0.396052 -0.013126 -0.138675 6.133717 -0.020272 -0.102483 8.282572 -1.003700 1.312092 -20.630110 -2.412023 1.893385 0.567276 -6.281184 1.910182 -32.755555 -58.495803 -37.218732 37.550054 -11.657962 79.855375 -4.811314 8.910120 18.365991 1.673531 8.761271 -3.707124 -32.552282 59.030777 43.133256 34.982426 29.800071 -80.212635 -7.058492 -2.652885 -24.516103 -19.584022 8.945022 -13.655827 98.359041 7.132111 -5.511752 -11.785980 0.117836 -6.217526 0.000000 -0.000000 0.000000 -32.045400 1.227828 6.078812 48.235725 -4.096063 -7.027045 -24.055035 -3.292796 3.992532 0.000001 -0.000001 0.000000 
253.957474 480.759064 88.928101 -3.872317 -2.028421 -164.292059 0.986828 -0.046917 -0.378893 -5.387686 -0.002837 -0.169660 0.432747 -0.002820 -0.169657 6.161232 -0.014912 -0.126387 8.193751 -0.981388 1.320069 -20.794811 -2.376857 1.916431 0.559567 -6.302650 1.894686 -32.574180 -58.454562 -37.618015 37.418502 -11.619370 79.349388 -4.930264 8.888548 18.392673 1.682167 8.856283 -3.753234 -32.510833 59.207003 42.282307 34.794066 29.759155 -80.058450 -7.092380 -2.725554 -24.569915 -20.266365 9.163135 -13.822631 99.289907 7.436338 -5.404744 -12.153234 0.344407 -6.285856 -0.000002 -0.000000 -0.000001 -31.832903 1.254608 6.234941 49.022095 -4.371446 -7.258966 -24.730800 -3.395236 4.206606 -0.000002 0.000000 -0.000002 
253.811584 481.594025 88.746323 -3.829517 -1.965147 -164.275434 1.065681 -0.035897 -0.450303 -5.352632 0.005482 -0.200692 0.467800 0.005506 -0.200692 6.187514 -0.011030 -0.150169 8.105978 -0.948742 1.330467 -20.957515 -2.324275 1.948737 0.593891 -6.318517 1.891341 -32.325486 -58.447138 -37.957328 37.227113 -11.557432 78.817227 -5.056926 8.868324 18.431904 1.692470 8.960799 -3.790246 -32.586423 59.320473 41.526010 34.703778 29.733996 -79.911977 -7.112752 -2.772224 -24.607447 -20.952015 9.379247 -13.971837 100.139883 7.731093 -5.249140 -12.521110 0.551991 -6.306535 -0.000003 -0.000000 0.000003 -31.506023 1.245370 6.465138 49.646774 -4.645794 -7.341988 -25.494381 -3.398659 4.221582 -0.000003 0.000000 -0.000002 
253.662231 482.441437 88.586899 -3.789855 -1.904893 -164.265435 1.140108 -0.028942 -0.521429 -5.319544 0.012012 -0.231789 0.500889 0.012039 -0.231785 6.212319 -0.008487 -0.173862 8.020382 -0.907246 1.343306 -21.116141 -2.256958 1.989698 0.663339 -6.329499 1.897944 -32.022341 -58.465484 -38.246812 36.989535 -11.477165 78.268258 -5.188525 8.848414 18.480810 1.703144 9.071932 -3.819360 -32.760989 59.384424 40.855927 34.694991 29.724840 -79.776644 -7.121395 -2.796443 -24.630794 -21.640537 9.591278 -14.103760 100.907166 8.014201 -5.053828 -12.888740 0.741079 -6.285246 -0.000002 -0.000000 -0.000000 -31.078884 1.206814 6.750241 50.124033 -4.911023 -7.298609 -26.324989 -3.316254 4.074594 0.000000 0.000000 -0.000005 
253.510895 483.298370 88.449142 -3.754366 -1.848267 -164.262525 1.209380 -0.025623 -0.592350 -5.288743 0.016941 -0.262964 0.531689 0.016971 -0.262959 6.235410 -0.007143 -0.197494 7.938091 -0.858386 1.358610 -21.268596 -2.177575 2.038686 0.761001 -6.336339 1.912288 -31.677301 -58.501404 -38.496309 36.719558 -11.383397 77.711611 -5.322251 8.827980 18.536527 1.712905 9.186785 -3.841756 -33.014949 59.411622 40.262097 34.751029 29.731479 -79.655640 -7.120084 -2.801804 -24.642035 -22.331459 9.797129 -14.218809 101.589946 8.283263 -4.827832 -13.255252 0.911936 -6.227759 -0.000001 0.000001 -0.000001 -30.565612 1.145630 7.071233 50.468097 -5.159304 -7.151812 -27.200819 -3.160815 3.803177 0.000002 0.000000 -0.000002 
